<?xml version="1.0" standalone="no"?>
<!DOCTYPE svg PUBLIC "-//W3C//DTD SVG 20010904//EN"
 "http://www.w3.org/TR/2001/REC-SVG-20010904/DTD/svg10.dtd">
<svg version="1.0" xmlns="http://www.w3.org/2000/svg"
 width="424.000000pt" height="361.000000pt" viewBox="0 0 424.000000 361.000000"
 preserveAspectRatio="xMidYMid meet">

<g transform="translate(0.000000,361.000000) scale(0.100000,-0.100000)"
fill="#000000" stroke="none">
<path d="M116 3508 c-14 -20 -16 -169 -16 -1395 0 -1360 0 -1373 20 -1393 20
-20 33 -20 970 -20 l950 0 0 -230 0 -230 -350 0 c-337 0 -351 -1 -370 -20 -26
-26 -26 -74 0 -100 20 -20 30 -20 800 -18 766 3 779 3 794 23 20 26 20 64 0
90 -14 19 -28 20 -369 23 l-355 3 0 229 0 230 950 0 949 0 21 22 c20 22 20 27
20 1393 0 1366 0 1371 -20 1393 l-21 22 -1979 0 -1979 0 -15 -22z m3872 -1391
l2 -1277 -1875 0 -1875 0 0 1280 0 1280 1873 -2 1872 -3 3 -1278z"/>
<path d="M2138 2463 c-14 -17 -168 -619 -168 -655 0 -50 80 -76 115 -38 19 21
164 577 167 641 1 21 -4 44 -11 53 -18 22 -84 21 -103 -1z"/>
<path d="M1763 2238 c-121 -122 -121 -122 -6 -240 48 -49 98 -91 110 -94 37
-10 70 4 82 34 16 39 4 67 -58 126 l-50 50 53 56 c62 65 72 89 54 127 -11 23
-21 29 -53 31 -38 3 -44 -1 -132 -90z"/>
<path d="M2287 2312 c-32 -35 -21 -69 43 -136 l59 -62 -59 -59 c-66 -65 -76
-99 -40 -135 40 -40 71 -27 165 67 48 48 90 96 94 107 14 38 -2 65 -89 150
-76 75 -92 86 -122 86 -21 0 -41 -7 -51 -18z"/>
</g>
</svg>
