<?xml version="1.0" standalone="no"?>
<!DOCTYPE svg PUBLIC "-//W3C//DTD SVG 20010904//EN"
 "http://www.w3.org/TR/2001/REC-SVG-20010904/DTD/svg10.dtd">
<svg version="1.0" xmlns="http://www.w3.org/2000/svg"
 width="1358.000000pt" height="361.000000pt" viewBox="0 0 1358.000000 361.000000"
 preserveAspectRatio="xMidYMid meet">

<g transform="translate(0.000000,361.000000) scale(0.100000,-0.100000)"
fill="#000000" stroke="none">
<path d="M116 3508 c-14 -20 -16 -169 -16 -1395 0 -1360 0 -1373 20 -1393 20
-20 33 -20 970 -20 l950 0 0 -230 0 -230 -350 0 c-337 0 -351 -1 -370 -20 -26
-26 -26 -74 0 -100 20 -20 30 -20 800 -18 766 3 779 3 794 23 20 26 20 64 0
90 -14 19 -28 20 -369 23 l-355 3 0 229 0 230 950 0 949 0 21 22 c20 22 20 27
20 1393 0 1366 0 1371 -20 1393 l-21 22 -1979 0 -1979 0 -15 -22z m3872 -1391
l2 -1277 -1875 0 -1875 0 0 1280 0 1280 1873 -2 1872 -3 3 -1278z"/>
<path d="M2138 2463 c-14 -17 -168 -619 -168 -655 0 -50 80 -76 115 -38 19 21
164 577 167 641 1 21 -4 44 -11 53 -18 22 -84 21 -103 -1z"/>
<path d="M1763 2238 c-121 -122 -121 -122 -6 -240 48 -49 98 -91 110 -94 37
-10 70 4 82 34 16 39 4 67 -58 126 l-50 50 53 56 c62 65 72 89 54 127 -11 23
-21 29 -53 31 -38 3 -44 -1 -132 -90z"/>
<path d="M2287 2312 c-32 -35 -21 -69 43 -136 l59 -62 -59 -59 c-66 -65 -76
-99 -40 -135 40 -40 71 -27 165 67 48 48 90 96 94 107 14 38 -2 65 -89 150
-76 75 -92 86 -122 86 -21 0 -41 -7 -51 -18z"/>
<path d="M9950 2105 c0 -488 -3 -681 -12 -699 -26 -58 -40 -61 -323 -64 -313
-4 -355 0 -398 38 l-32 28 -3 244 c-3 211 -1 247 13 274 30 56 44 58 348 62
l277 3 0 140 0 139 -254 0 c-340 0 -421 -15 -523 -97 -57 -45 -102 -113 -125
-185 -15 -52 -18 -95 -18 -315 0 -226 2 -264 20 -322 35 -118 104 -201 210
-250 l55 -26 380 0 380 0 65 32 c86 42 146 101 184 182 l31 66 3 713 3 712
-141 0 -140 0 0 -675z"/>
<path d="M6989 2666 c-67 -12 -199 -69 -247 -106 -87 -67 -154 -147 -196 -234
-68 -143 -79 -214 -73 -501 5 -262 12 -305 69 -422 89 -182 251 -304 460 -347
110 -23 556 -23 666 0 255 52 422 205 504 459 21 65 22 88 22 345 0 239 -2
283 -18 340 -72 249 -265 427 -510 470 -81 14 -593 11 -677 -4z m713 -298 c75
-35 138 -95 174 -165 l29 -58 0 -280 0 -280 -28 -57 c-50 -101 -133 -167 -247
-194 -76 -18 -514 -18 -590 0 -146 35 -236 124 -275 273 -24 90 -21 437 4 524
31 109 90 182 183 230 65 33 115 38 413 36 l280 -2 57 -27z"/>
<path d="M4882 2639 c-112 -35 -211 -138 -249 -257 -16 -52 -18 -101 -18 -532
0 -472 0 -475 23 -532 44 -109 112 -176 229 -224 l58 -24 594 0 c578 0 595 1
626 20 64 39 65 49 65 445 0 393 0 391 -63 439 l-34 26 -481 0 -482 0 0 -140
0 -140 390 0 390 0 -2 -187 -3 -188 -475 0 c-532 0 -515 -2 -546 71 -22 52
-16 878 6 912 35 52 30 52 684 52 l606 0 0 140 0 140 -627 -1 c-598 0 -631 -1
-691 -20z"/>
<path d="M10824 2260 c-115 -17 -235 -102 -281 -200 -44 -93 -48 -123 -48
-400 0 -224 3 -274 17 -321 37 -118 131 -213 247 -249 57 -18 92 -20 357 -20
l294 0 0 130 0 130 -267 1 c-291 0 -322 5 -357 52 -20 27 -21 43 -24 267 -3
267 2 294 60 330 31 19 50 20 326 20 315 0 343 -4 377 -54 20 -28 20 -125 -1
-154 -34 -49 -53 -52 -349 -52 l-275 0 0 -135 0 -135 249 0 c281 0 383 10 453
46 130 66 208 201 208 360 0 196 -127 344 -329 380 -83 15 -565 18 -657 4z"/>
<path d="M12020 1718 c0 -530 1 -554 20 -585 35 -58 62 -68 175 -66 423 7 812
295 1062 784 52 101 133 290 153 359 4 14 11 33 15 43 7 16 -4 17 -143 17
l-149 0 -14 -47 c-17 -63 -81 -211 -127 -293 -140 -254 -333 -456 -508 -530
-42 -18 -166 -50 -195 -50 -5 0 -9 181 -9 460 l0 460 -140 0 -140 0 0 -552z"/>
<path d="M8457 1319 c-110 -82 -55 -249 82 -249 45 0 55 4 91 38 37 36 40 43
40 91 0 92 -48 141 -137 141 -33 -1 -57 -7 -76 -21z"/>
</g>
</svg>
